<?xml version="1.0" standalone="no"?>
<!DOCTYPE svg PUBLIC "-//W3C//DTD SVG 20010904//EN"
 "http://www.w3.org/TR/2001/REC-SVG-20010904/DTD/svg10.dtd">
<svg version="1.0" xmlns="http://www.w3.org/2000/svg"
 width="250.000000pt" height="250.000000pt" viewBox="0 0 250.000000 250.000000"
 preserveAspectRatio="xMidYMid meet">
<metadata>
Created by potrace 1.16, written by Peter Selinger 2001-2019
</metadata>
<g transform="translate(0.000000,250.000000) scale(0.100000,-0.100000)"
fill="#000000" stroke="none">
<path d="M102 1880 c-36 -42 -31 -130 9 -162 28 -24 43 -23 76 6 24 21 28 31
28 79 0 40 -5 61 -19 76 -28 30 -36 26 -36 -19 0 -22 -4 -40 -10 -40 -5 0 -10
18 -10 40 0 44 -11 50 -38 20z"/>
<path d="M1610 1385 c0 -58 -3 -105 -6 -105 -3 0 -20 10 -37 23 -23 16 -45 22
-80 21 -90 -1 -140 -68 -140 -188 0 -84 22 -139 67 -168 43 -27 113 -20 160
15 l35 27 3 -27 c2 -17 9 -28 18 -28 13 0 15 38 18 268 2 262 2 267 -18 267
-19 0 -20 -6 -20 -105z m-77 -106 c12 -6 34 -23 50 -37 25 -24 27 -32 27 -103
l0 -77 -40 -36 c-63 -57 -138 -48 -166 19 -18 44 -18 136 0 179 24 58 78 81
129 55z"/>
<path d="M2070 1370 l0 -50 -35 0 c-46 0 -49 -27 -2 -32 l32 -3 5 -148 c5
-141 6 -150 29 -168 40 -33 121 -21 121 17 0 8 -13 10 -42 7 -62 -9 -68 5 -68
164 l0 133 55 0 c42 0 55 3 55 15 0 12 -13 15 -55 15 l-55 0 0 50 c0 43 -3 50
-20 50 -17 0 -20 -7 -20 -50z"/>
<path d="M435 1316 c-17 -7 -36 -20 -44 -29 -19 -24 -31 -21 -31 8 0 18 -5 25
-20 25 -20 0 -20 -5 -18 -182 3 -155 5 -183 18 -183 12 0 15 23 18 132 l3 131
39 36 c41 37 82 46 119 26 30 -16 35 -38 41 -185 4 -115 8 -140 20 -140 12 0
15 23 18 137 3 163 -7 200 -62 223 -43 18 -62 18 -101 1z"/>
<path d="M771 1319 c-13 -5 -36 -18 -52 -30 l-29 -20 0 25 c0 19 -5 26 -20 26
-20 0 -20 -5 -18 -182 3 -155 5 -183 18 -183 12 0 15 23 18 132 l3 131 39 36
c50 45 95 49 131 10 22 -24 24 -35 29 -167 4 -117 8 -142 20 -142 23 0 27 262
5 310 -25 52 -89 76 -144 54z"/>
<path d="M1085 1320 c-145 -45 -153 -306 -12 -359 66 -25 145 -6 189 47 70 83
50 254 -33 298 -37 19 -106 26 -144 14z m114 -45 c35 -17 61 -78 61 -140 0
-91 -44 -145 -119 -145 -53 0 -84 18 -106 60 -18 34 -20 124 -4 169 21 61 105
89 168 56z"/>
<path d="M1787 1316 c-79 -29 -112 -91 -105 -204 4 -83 36 -133 94 -152 48
-16 129 -8 162 17 84 61 97 227 24 306 -42 44 -107 57 -175 33z m133 -53 c60
-55 59 -197 -2 -248 -41 -35 -114 -35 -151 -1 -63 58 -61 196 4 250 44 37 108
36 149 -1z"/>
<path d="M2330 1319 c-39 -16 -59 -39 -66 -75 -9 -48 16 -81 84 -111 32 -14
65 -33 75 -41 22 -20 22 -64 -1 -85 -23 -21 -97 -22 -132 -2 -34 19 -40 18
-40 -6 0 -42 107 -63 175 -35 40 17 55 42 55 94 0 47 -15 62 -92 96 -69 31
-96 65 -80 101 17 37 64 44 140 20 16 -6 22 -3 22 8 0 32 -93 56 -140 36z"/>
</g>
</svg>
